<?xml version="1.0" encoding="UTF-8"?>
<svg width="272px" height="71px" viewBox="0 0 272 71" version="1.1" xmlns="http://www.w3.org/2000/svg" xmlns:xlink="http://www.w3.org/1999/xlink">
    <!-- Generator: Sketch 52.5 (67469) - http://www.bohemiancoding.com/sketch -->
    <title>Logo</title>
    <desc>Created with Sketch.</desc>
    <defs>
        <path d="M35.2645179,55.8904714 C32.0074829,55.8904714 29.1776425,55.6235053 26.7749118,55.0895652 C24.372181,54.555625 22.263149,53.7013336 20.4477524,52.5266652 C19.6468422,52.046119 19.0328202,51.4054005 18.6056681,50.6044902 C18.178516,49.80358 17.9649431,48.8958953 17.9649431,47.881409 C17.9649431,46.6533466 18.311999,45.6255272 19.0061212,44.79792 C19.7002434,43.9703127 20.5545349,43.5565153 21.5690212,43.5565153 C22.2631434,43.5565153 22.9572552,43.67665 23.6513774,43.9169231 C24.3454996,44.1571962 25.066308,44.4375106 25.8138243,44.7578746 C27.3088567,45.4519969 28.7771701,45.9992773 30.2188086,46.3997324 C31.660447,46.8001876 33.4491198,47.0004121 35.5848804,47.0004121 C37.453671,47.0004121 38.9086361,46.7067494 39.9498194,46.1194153 C40.9910027,45.5320811 41.5115866,44.7311828 41.5115866,43.7166965 C41.5115866,42.9691803 41.2846654,42.3685066 40.8308163,41.9146575 C40.3769672,41.4608084 39.536024,41.0470109 38.3079616,40.6732528 C37.0798993,40.2994947 35.1310469,39.8456524 32.4613461,39.3117122 C27.7092786,38.4040139 24.2921128,37.0424869 22.2097462,35.2270904 C20.1273795,33.4116938 19.0862118,30.8755161 19.0862118,27.6184811 C19.0862118,25.2157503 19.8203685,23.0533251 21.288704,21.1311405 C22.7570394,19.2089559 24.7726333,17.7005976 27.3355461,16.6060203 C29.8984589,15.5114429 34.5995469,15.0358375 39,16 C39,16.5138365 38.2391391,10.874483 39,10.874483 C39.9795699,10.874483 50.6700942,16.7940744 50.6700942,19.874483 C50.6700942,22.9548916 40.6496641,28.4929641 39.6700942,28.4929641 C38.6905243,28.4929641 39.085372,23.2544608 38.9498194,24 C37.2946049,24 33,23.3799778 31.5803492,24.6951733 C30.1606984,26.0103688 30.138718,26.1501476 30.138718,27.218028 C30.138718,28.3393023 30.6993467,29.1935937 31.8206211,29.7809279 C32.9418954,30.3682621 35.1043206,30.9555875 38.3079616,31.5429217 C41.8853607,32.2370439 44.6885045,33.077987 46.7174772,34.0657763 C48.7464498,35.0535656 50.2147632,36.2949579 51.1224615,37.7899903 C52.0301598,39.2850228 52.4840021,41.180482 52.4840021,43.4764247 C52.4840021,47.2673998 50.9222506,50.2841165 47.7987006,52.5266652 C44.6751506,54.7692139 40.4971315,55.8904714 35.2645179,55.8904714 Z" id="path-1"></path>
        <filter x="-37.7%" y="-23.7%" width="175.3%" height="157.0%" filterUnits="objectBoundingBox" id="filter-2">
            <feOffset dx="0" dy="2" in="SourceAlpha" result="shadowOffsetOuter1"></feOffset>
            <feGaussianBlur stdDeviation="4" in="shadowOffsetOuter1" result="shadowBlurOuter1"></feGaussianBlur>
            <feColorMatrix values="0 0 0 0 0.761399872   0 0 0 0 0.761399872   0 0 0 0 0.761399872  0 0 0 0.5 0" type="matrix" in="shadowBlurOuter1"></feColorMatrix>
        </filter>
    </defs>
    <g id="Logo" stroke="none" stroke-width="1" fill="none" fill-rule="evenodd">
        <g id="Artboard" transform="translate(-36.000000, -50.000000)">
            <g id="Logotype/Normal" transform="translate(36.000000, 25.000000)">
                <text id="sozzy" font-family="Nunito-ExtraBold, Nunito" font-size="79" font-weight="600" letter-spacing="-2.6434629" fill="#454545">
                    <tspan x="76.9346572" y="80">sozzy</tspan>
                </text>
                <g id="Logo/Normal" transform="translate(0.000000, 25.000000)">
                    <circle id="Oval" fill="#50E3C2" fill-rule="nonzero" cx="35.5" cy="35.5" r="35.5"></circle>
                    <g id="s">
                        <use fill="black" fill-opacity="1" filter="url(#filter-2)" xlink:href="#path-1"></use>
                        <use fill="#454545" fill-rule="evenodd" xlink:href="#path-1"></use>
                        <use fill="#FFFFFF" fill-rule="evenodd" xlink:href="#path-1"></use>
                    </g>
                </g>
            </g>
        </g>
    </g>
</svg>